<svg width="38" height="38" viewBox="0 0 38 38" fill="none" xmlns="http://www.w3.org/2000/svg">
<path fill-rule="evenodd" clip-rule="evenodd" d="M19 13.0625C15.7208 13.0625 13.0625 15.7208 13.0625 19C13.0625 22.2792 15.7208 24.9375 19 24.9375C22.2792 24.9375 24.9375 22.2792 24.9375 19C24.9375 15.7208 22.2792 13.0625 19 13.0625ZM15.4375 19C15.4375 17.0325 17.0325 15.4375 19 15.4375C20.9674 15.4375 22.5625 17.0325 22.5625 19C22.5625 20.9674 20.9674 22.5625 19 22.5625C17.0325 22.5625 15.4375 20.9674 15.4375 19Z" fill="white"/>
<path fill-rule="evenodd" clip-rule="evenodd" d="M18.9597 1.97917C18.2561 1.97915 17.6685 1.97915 17.1862 2.01205C16.6842 2.04632 16.21 2.12016 15.7502 2.31061C14.6833 2.75253 13.8356 3.60017 13.3937 4.66706C13.1637 5.2225 13.1014 5.80786 13.0776 6.4441C13.0584 6.95557 12.8003 7.38231 12.4194 7.60223C12.0385 7.82216 11.5398 7.83232 11.0873 7.59316C10.5244 7.29564 9.98634 7.0569 9.39028 6.97843C8.24537 6.8277 7.08746 7.13797 6.1713 7.84097C5.77648 8.14392 5.47539 8.5177 5.1947 8.93538C4.92504 9.33662 4.63132 9.8454 4.27945 10.4549L4.23947 10.5241C3.88759 11.1336 3.59385 11.6423 3.3812 12.0764C3.15983 12.5284 2.98666 12.976 2.9217 13.4694C2.77096 14.6144 3.08123 15.7722 3.78422 16.6885C4.15016 17.1652 4.62587 17.512 5.1649 17.8507C5.59839 18.123 5.83894 18.56 5.83891 19C5.83889 19.4398 5.59834 19.8768 5.1649 20.1492C4.62581 20.4879 4.15005 20.8346 3.78408 21.3115C3.08108 22.2276 2.77082 23.3855 2.92154 24.5304C2.9865 25.0238 3.15967 25.4716 3.38104 25.9234C3.5937 26.3576 3.88744 26.8663 4.2393 27.4757L4.2793 27.5451C4.63116 28.1545 4.92488 28.6632 5.19454 29.0645C5.47523 29.4821 5.77632 29.856 6.17114 30.1589C7.08731 30.8619 8.24521 31.1722 9.39012 31.0215C9.98615 30.9429 10.5242 30.7043 11.0871 30.4068C11.5397 30.1676 12.0383 30.1777 12.4193 30.3978C12.8003 30.6177 13.0584 31.0444 13.0776 31.556C13.1014 32.1922 13.1637 32.7775 13.3937 33.333C13.8356 34.3998 14.6833 35.2475 15.7502 35.6894C16.21 35.8799 16.6842 35.9537 17.1862 35.9879C17.6685 36.0208 18.2561 36.0208 18.9597 36.0208H19.0397C19.7435 36.0208 20.3309 36.0208 20.8133 35.9879C21.3154 35.9537 21.7896 35.8799 22.2494 35.6894C23.3163 35.2475 24.164 34.3998 24.6059 33.333C24.836 32.7775 24.8982 32.1922 24.9219 31.5558C24.9411 31.0444 25.1992 30.6177 25.5801 30.3976C25.9611 30.1777 26.4598 30.1676 26.9123 30.4066C27.4752 30.7042 28.0132 30.9429 28.6094 31.0213C29.7543 31.172 30.9122 30.8619 31.8283 30.1589C32.2232 29.8558 32.5242 29.4821 32.8049 29.0645C33.0745 28.6632 33.3682 28.1545 33.7201 27.5451L33.7601 27.4757C34.1119 26.8663 34.4058 26.3574 34.6184 25.9233C34.8398 25.4714 35.0128 25.0238 35.0779 24.5304C35.2286 23.3854 34.9183 22.2275 34.2153 21.3113C33.8494 20.8344 33.3736 20.4879 32.8347 20.1492C32.4011 19.8768 32.1606 19.4398 32.1606 18.9998C32.1606 18.56 32.4011 18.1231 32.8345 17.8508C33.3738 17.5121 33.8496 17.1655 34.2155 16.6885C34.9185 15.7724 35.2288 14.6145 35.0781 13.4695C35.013 12.9761 34.8399 12.5285 34.6186 12.0766C34.406 11.6425 34.1122 11.1337 33.7603 10.5243L33.7204 10.455C33.3684 9.84556 33.0747 9.33673 32.805 8.93549C32.5243 8.51781 32.2233 8.14403 31.8284 7.84106C30.9123 7.13808 29.7544 6.82781 28.6094 6.97854C28.0134 7.05701 27.4754 7.29571 26.9125 7.59322C26.46 7.83242 25.9612 7.82224 25.5803 7.60228C25.1993 7.38234 24.9411 6.95554 24.9219 6.44402C24.8982 5.80779 24.836 5.22247 24.6059 4.66706C24.164 3.60017 23.3163 2.75253 22.2494 2.31061C21.7896 2.12016 21.3154 2.04632 20.8133 2.01205C20.3309 1.97915 19.7435 1.97915 19.0397 1.97917H18.9597ZM16.659 4.50482C16.7812 4.45422 16.9668 4.40756 17.3479 4.38154C17.7398 4.35482 18.2458 4.35417 18.9998 4.35417C19.7538 4.35417 20.2598 4.35482 20.6515 4.38154C21.0328 4.40756 21.2184 4.45422 21.3404 4.50482C21.8254 4.7057 22.2108 5.09099 22.4116 5.57595C22.4751 5.72891 22.5275 5.96738 22.5487 6.53279C22.5955 7.78739 23.2431 8.99538 24.3928 9.65909C25.5423 10.3228 26.9123 10.2796 28.0223 9.69298C28.5224 9.42859 28.7554 9.35484 28.9194 9.33323C29.4398 9.26472 29.9661 9.40574 30.3825 9.72528C30.4875 9.80577 30.6207 9.94316 30.8338 10.2603C31.0529 10.5862 31.3064 11.0241 31.6834 11.6771C32.0604 12.3301 32.3129 12.7686 32.4857 13.1213C32.6537 13.4644 32.7061 13.6484 32.7233 13.7795C32.7919 14.3 32.6508 14.8263 32.3313 15.2427C32.2305 15.3741 32.0503 15.5388 31.571 15.8398C30.5081 16.5078 29.7858 17.6725 29.7856 18.9998C29.7856 20.3273 30.5079 21.4922 31.571 22.1602C32.0501 22.4612 32.2303 22.6258 32.3312 22.7572C32.6507 23.1737 32.7917 23.7 32.7232 24.2204C32.7059 24.3515 32.6535 24.5355 32.4855 24.8786C32.3128 25.2312 32.0602 25.6698 31.6832 26.3228C31.3063 26.9757 31.0528 27.4137 30.8336 27.7397C30.6205 28.0567 30.4874 28.1941 30.3824 28.2745C29.966 28.5942 29.4397 28.7351 28.9192 28.6667C28.7552 28.645 28.5223 28.5712 28.0221 28.307C26.9122 27.7202 25.5421 27.6771 24.3925 28.3409C23.2431 29.0046 22.5955 30.2125 22.5487 31.4672C22.5275 32.0326 22.4751 32.271 22.4116 32.4241C22.2108 32.9089 21.8254 33.2943 21.3404 33.4953C21.2184 33.5458 21.0328 33.5925 20.6515 33.6184C20.2598 33.6452 19.7538 33.6458 18.9998 33.6458C18.2458 33.6458 17.7398 33.6452 17.3479 33.6184C16.9668 33.5925 16.7812 33.5458 16.659 33.4953C16.1742 33.2943 15.7888 32.9089 15.5879 32.4241C15.5246 32.271 15.4721 32.0326 15.4509 31.4672C15.404 30.2127 14.7564 29.0046 13.6068 28.3409C12.4572 27.6771 11.0873 27.7204 9.9773 28.307C9.47708 28.5714 9.2443 28.6452 9.08014 28.6667C8.55971 28.7353 8.03339 28.5942 7.61696 28.2747C7.51205 28.1943 7.37884 28.0568 7.16574 27.7397C6.94669 27.4138 6.69312 26.9759 6.31613 26.3229C5.93912 25.6699 5.68667 25.2314 5.51392 24.8788C5.34586 24.5356 5.29348 24.3515 5.27623 24.2204C5.20771 23.7 5.34874 23.1737 5.66829 22.7572C5.76909 22.626 5.94935 22.4612 6.42845 22.1602C7.49147 21.4923 8.21385 20.3275 8.21391 19.0002C8.21399 17.6725 7.49158 16.5077 6.42847 15.8397C5.94948 15.5387 5.76923 15.374 5.66843 15.2426C5.3489 14.8262 5.20787 14.2999 5.27638 13.7794C5.29364 13.6483 5.34602 13.4643 5.51407 13.1212C5.68683 12.7685 5.93928 12.33 6.31627 11.677C6.69328 11.024 6.94683 10.5861 7.1659 10.2601C7.379 9.94306 7.51221 9.80566 7.6171 9.72518C8.03355 9.40563 8.55987 9.26461 9.08028 9.33312C9.24446 9.35473 9.47725 9.42848 9.97754 9.69291C11.0875 10.2796 12.4573 10.3227 13.6069 9.65905C14.7564 8.99536 15.404 7.78742 15.4509 6.53287C15.4721 5.96741 15.5246 5.72893 15.5879 5.57595C15.7888 5.09099 16.1742 4.7057 16.659 4.50482Z" fill="white"/>
</svg>
