<svg width="38" height="38" viewBox="0 0 38 38" fill="none" xmlns="http://www.w3.org/2000/svg">
<path d="M34.0186 17.543L31.3543 11.6877C31.1062 11.1411 30.4607 10.9011 29.9168 11.1492C29.3707 11.3973 29.1296 12.0417 29.3783 12.5867L31.205 16.6022H24.1467C23.5474 16.6022 23.061 17.0886 23.061 17.6879C23.061 18.2872 23.5474 18.7736 24.1467 18.7736H31.5785L29.3772 23.6116C29.1286 24.1566 29.3696 24.801 29.9157 25.0491C30.0617 25.1147 30.2143 25.1468 30.3646 25.1468C30.7772 25.1468 31.1713 24.9101 31.3532 24.5105L34.0344 18.6178C34.0908 18.5114 34.1277 18.3969 34.1462 18.2785C34.1934 18.0267 34.1462 17.7655 34.0186 17.543Z" fill="white"/>
<path d="M28.0023 25.8275C27.403 25.8275 26.9166 26.3134 26.9166 26.9132V31.2593H20.9452V8.28889C20.9452 7.35409 20.5054 6.5246 19.6179 6.22874L13.3196 4.11649H26.9166V9.5418C26.9166 10.1411 27.403 10.6275 28.0023 10.6275C28.6016 10.6275 29.088 10.1411 29.088 9.5418V3.02752C29.088 2.4282 29.0896 1.94506 28.4898 1.94506H6.84499L6.66856 1.88589C6.44436 1.81097 6.29182 1.7746 6.0611 1.7746C5.61107 1.7746 5.00796 1.91466 4.63339 2.18446C4.06719 2.59269 3.57373 3.24792 3.57373 3.94603V29.7708C3.57373 30.7051 4.32993 31.5351 5.21642 31.831L18.3242 36.1738C18.5484 36.2482 18.8199 36.2851 19.05 36.2851C19.5006 36.2851 19.8073 36.1451 20.1814 35.8747C20.7476 35.4665 20.9452 34.8113 20.9452 34.1137V33.4308H28.4898C29.0891 33.4308 29.088 32.9411 29.088 32.3418V26.9132C29.088 26.3134 28.6022 25.8275 28.0023 25.8275ZM18.7737 34.1137L5.74516 29.7708V4.11649V4.0736L5.86296 3.98729L18.7737 8.28889V34.1137Z" fill="white"/>
<path d="M16.6024 25.8275C16.9026 25.8275 17.1453 25.5849 17.1453 25.2847V22.0275C17.1453 21.7273 16.9026 21.4847 16.6024 21.4847C16.3022 21.4847 16.0596 21.7273 16.0596 22.0275V25.2847C16.0596 25.5849 16.3022 25.8275 16.6024 25.8275Z" fill="white"/>
</svg>
