<svg width="62" height="204" viewBox="0 0 62 204" fill="none" xmlns="http://www.w3.org/2000/svg">
<path fill-rule="evenodd" clip-rule="evenodd" d="M31 20.6666C25.385 20.6666 20.8333 25.2185 20.8333 30.8333C20.8333 36.4482 25.385 41 31 41C36.615 41 41.1667 36.4482 41.1667 30.8333C41.1667 25.2185 36.615 20.6666 31 20.6666ZM61.5 30.8333C61.5 47.678 47.8452 61.3333 31 61.3333C14.1548 61.3333 0.5 47.678 0.5 30.8333C0.5 13.9887 14.1548 0.333313 31 0.333313C47.8452 0.333313 61.5 13.9887 61.5 30.8333ZM31 91.8333C25.385 91.8333 20.8333 96.3849 20.8333 102C20.8333 107.615 25.385 112.167 31 112.167C36.615 112.167 41.1667 107.615 41.1667 102C41.1667 96.3849 36.615 91.8333 31 91.8333ZM61.5 102C61.5 118.845 47.8452 132.5 31 132.5C14.1548 132.5 0.5 118.845 0.5 102C0.5 85.1548 14.1548 71.5 31 71.5C47.8452 71.5 61.5 85.1548 61.5 102ZM20.8333 173.167C20.8333 167.552 25.385 163 31 163C36.615 163 41.1667 167.552 41.1667 173.167C41.1667 178.782 36.615 183.333 31 183.333C25.385 183.333 20.8333 178.782 20.8333 173.167ZM31 203.667C47.8452 203.667 61.5 190.012 61.5 173.167C61.5 156.322 47.8452 142.667 31 142.667C14.1548 142.667 0.5 156.322 0.5 173.167C0.5 190.012 14.1548 203.667 31 203.667Z" fill="url(#paint0_linear_2_19)"/>
<defs>
<linearGradient id="paint0_linear_2_19" x1="31" y1="0.333313" x2="31" y2="203.667" gradientUnits="userSpaceOnUse">
<stop stop-color="#5CF5FF"/>
<stop offset="1" stop-color="#7000FF" stop-opacity="0.76"/>
</linearGradient>
</defs>
</svg>
